{"asset":{"version":"2.0","generator":"THREE.GLTFExporter"},"scenes":[{"nodes":[0],"name":"AuxScene"}],"scene":0,"nodes":[{"mesh":0}],"bufferViews":[{"buffer":0,"byteOffset":0,"byteLength":49572,"target":34962,"byteStride":12},{"buffer":0,"byteOffset":49572,"byteLength":49572,"target":34962,"byteStride":12}],"buffers":[{"byteLength":99144,"uri":"data:application/octet-stream;base64,"}],"accessors":[{"bufferView":0,"componentType":5126,"count":4131,"max":[100.81192016601562,4.195969104766846,100.61190795898438],"min":[-100.78809356689453,0.19596900045871735,-100.98809814453125],"type":"VEC3"},{"bufferView":1,"componentType":5126,"count":4131,"max":[0.8452889919281006,1,0.8732995390892029],"min":[-0.8171154260635376,0.14622583985328674,-0.8773809671401978],"type":"VEC3"}],"materials":[{"pbrMetallicRoughness":{"baseColorFactor":[0.5019607843137255,0.5019607843137255,0.5019607843137255,1],"metallicFactor":0,"roughnessFactor":1}}],"meshes":[{"primitives":[{"mode":4,"attributes":{"POSITION":0,"NORMAL":1},"material":0}]}]}